<?xml version="1.0" encoding="utf-8"?>
<!-- Generator: Adobe Illustrator 23.0.1, SVG Export Plug-In . SVG Version: 6.00 Build 0)  -->
<svg version="1.1" id="Vrstva_1" xmlns="http://www.w3.org/2000/svg" xmlns:xlink="http://www.w3.org/1999/xlink" x="0px" y="0px"
	 viewBox="0 0 512 512" style="enable-background:new 0 0 512 512;" xml:space="preserve">
<style type="text/css">
	.st0{fill:#7B2323;}
</style>
<g>
	<path class="st0" d="M452.9,123.8L334.3,5.2c-2.4-2.4-5.4-4-8.6-4.7c-0.1,0-0.1,0-0.2,0c-1.2-0.2-2.4-0.4-3.6-0.4H72.2
		C62.2,0,54,8.2,54,18.2v475.6c0,10,8.2,18.2,18.2,18.2h367.7c10,0,18.2-8.2,18.2-18.2V136.2C458.1,131.5,456.2,127.1,452.9,123.8z
		 M337.5,50.8l70.4,70.4h-70.4V50.8z M84,482V30h223.4v106.2c0,8.3,6.7,15,15,15H428V482H84z"/>
	<path class="st0" d="M381.2,235.8H189.4c-8.3,0-15,6.7-15,15s6.7,15,15,15h191.8c8.3,0,15-6.7,15-15S389.5,235.8,381.2,235.8z"/>
	<path class="st0" d="M381.2,304.6H189.4c-8.3,0-15,6.7-15,15c0,8.3,6.7,15,15,15h191.8c8.3,0,15-6.7,15-15
		C396.3,311.4,389.5,304.6,381.2,304.6z"/>
	<path class="st0" d="M381.2,373.5H189.4c-8.3,0-15,6.7-15,15s6.7,15,15,15h191.8c8.3,0,15-6.7,15-15S389.5,373.5,381.2,373.5z"/>
	<path class="st0" d="M145.5,247.8c-0.1-0.5-0.2-1-0.4-1.4c-0.1-0.5-0.3-0.9-0.5-1.4c-0.2-0.5-0.4-0.9-0.6-1.3
		c-0.2-0.4-0.5-0.9-0.8-1.3c-0.3-0.4-0.6-0.8-0.9-1.2c-0.3-0.4-0.7-0.8-1-1.1c-0.3-0.3-0.7-0.7-1.1-1c-0.4-0.3-0.8-0.6-1.2-0.9
		s-0.8-0.5-1.3-0.8s-0.9-0.4-1.3-0.6c-0.4-0.2-0.9-0.4-1.4-0.5c-0.5-0.1-1-0.3-1.4-0.4c-0.5-0.1-1-0.2-1.4-0.2c-1-0.1-2-0.1-3,0
		c-0.5,0-1,0.1-1.5,0.2c-0.5,0.1-1,0.2-1.4,0.4c-0.5,0.2-0.9,0.3-1.4,0.5c-0.5,0.2-0.9,0.4-1.3,0.6c-0.4,0.2-0.9,0.5-1.3,0.8
		c-0.4,0.3-0.8,0.6-1.2,0.9c-0.4,0.3-0.8,0.7-1.1,1c-0.4,0.3-0.7,0.7-1,1.1c-0.3,0.4-0.6,0.8-0.9,1.2c-0.3,0.4-0.5,0.8-0.8,1.3
		c-0.2,0.4-0.4,0.9-0.6,1.3c-0.2,0.4-0.3,0.9-0.5,1.4c-0.1,0.5-0.3,0.9-0.4,1.4c-0.1,0.5-0.2,1-0.2,1.5c-0.1,0.5-0.1,1-0.1,1.5
		c0,0.5,0,1,0.1,1.5c0,0.5,0.1,1,0.2,1.4c0.1,0.5,0.2,1,0.4,1.4c0.2,0.5,0.3,0.9,0.5,1.4c0.2,0.5,0.4,0.9,0.6,1.3s0.5,0.9,0.8,1.3
		s0.6,0.8,0.9,1.2c0.3,0.4,0.6,0.8,1,1.1c0.3,0.3,0.7,0.7,1.1,1c0.4,0.3,0.8,0.6,1.2,0.9c0.4,0.3,0.8,0.5,1.3,0.8
		c0.4,0.2,0.9,0.4,1.3,0.6c0.4,0.2,0.9,0.3,1.4,0.5c0.5,0.1,0.9,0.3,1.4,0.4c0.5,0.1,1,0.2,1.5,0.2c0.5,0.1,1,0.1,1.5,0.1
		c0.5,0,1,0,1.5-0.1c0.5-0.1,1-0.1,1.4-0.2c0.5-0.1,1-0.2,1.4-0.4c0.5-0.2,0.9-0.3,1.4-0.5c0.4-0.2,0.9-0.4,1.3-0.6
		c0.4-0.2,0.9-0.5,1.3-0.8s0.8-0.6,1.2-0.9c0.4-0.3,0.8-0.7,1.1-1c0.3-0.3,0.7-0.7,1-1.1c0.3-0.4,0.6-0.8,0.9-1.2s0.5-0.8,0.8-1.3
		c0.2-0.4,0.4-0.9,0.6-1.3c0.2-0.4,0.4-0.9,0.5-1.4c0.1-0.5,0.3-1,0.4-1.4s0.2-1,0.2-1.4c0.1-0.5,0.1-1,0.1-1.5c0-0.5,0-1-0.1-1.5
		C145.7,248.8,145.6,248.3,145.5,247.8z"/>
	<path class="st0" d="M145.5,316.7c-0.1-0.5-0.2-1-0.4-1.4c-0.1-0.5-0.3-0.9-0.5-1.4c-0.2-0.4-0.4-0.9-0.6-1.3
		c-0.2-0.4-0.5-0.9-0.8-1.3c-0.3-0.4-0.6-0.8-0.9-1.2c-0.3-0.4-0.7-0.8-1-1.1c-0.3-0.3-0.7-0.7-1.1-1c-0.4-0.3-0.8-0.6-1.2-0.9
		s-0.8-0.5-1.3-0.8s-0.9-0.4-1.3-0.6c-0.4-0.2-0.9-0.3-1.4-0.5c-0.5-0.1-1-0.3-1.4-0.4c-0.5-0.1-1-0.2-1.4-0.2c-1-0.1-2-0.1-3,0
		c-0.5,0-1,0.1-1.5,0.2c-0.5,0.1-1,0.2-1.4,0.4c-0.5,0.2-0.9,0.3-1.4,0.5c-0.5,0.2-0.9,0.4-1.3,0.6c-0.4,0.2-0.9,0.5-1.3,0.8
		c-0.4,0.3-0.8,0.6-1.2,0.9c-0.4,0.3-0.8,0.6-1.1,1c-0.4,0.3-0.7,0.7-1,1.1c-0.3,0.4-0.6,0.8-0.9,1.2c-0.3,0.4-0.5,0.8-0.8,1.3
		c-0.2,0.4-0.4,0.9-0.6,1.3c-0.2,0.5-0.3,0.9-0.5,1.4c-0.1,0.5-0.3,0.9-0.4,1.4c-0.1,0.5-0.2,1-0.2,1.5c-0.1,0.5-0.1,1-0.1,1.5
		c0,0.5,0,1,0.1,1.5c0,0.5,0.1,1,0.2,1.4c0.1,0.5,0.2,1,0.4,1.4c0.2,0.5,0.3,0.9,0.5,1.4c0.2,0.4,0.4,0.9,0.6,1.3
		c0.2,0.4,0.5,0.9,0.8,1.3c0.3,0.4,0.6,0.8,0.9,1.2c0.3,0.4,0.6,0.8,1,1.1c0.3,0.3,0.7,0.7,1.1,1c0.4,0.3,0.8,0.6,1.2,0.9
		c0.4,0.3,0.8,0.5,1.3,0.8c0.4,0.2,0.9,0.4,1.3,0.6c0.4,0.2,0.9,0.4,1.4,0.5c0.5,0.1,0.9,0.3,1.4,0.4c0.5,0.1,1,0.2,1.5,0.2
		c0.5,0.1,1,0.1,1.5,0.1c0.5,0,1,0,1.5-0.1c0.5-0.1,1-0.1,1.4-0.2c0.5-0.1,1-0.2,1.4-0.4c0.5-0.1,0.9-0.3,1.4-0.5
		c0.4-0.2,0.9-0.4,1.3-0.6s0.9-0.5,1.3-0.8s0.8-0.6,1.2-0.9c0.4-0.3,0.8-0.7,1.1-1c0.3-0.4,0.7-0.7,1-1.1c0.3-0.4,0.6-0.8,0.9-1.2
		c0.3-0.4,0.5-0.8,0.8-1.3c0.2-0.4,0.4-0.9,0.6-1.3c0.2-0.4,0.4-0.9,0.5-1.4c0.1-0.5,0.3-1,0.4-1.4s0.2-1,0.2-1.4
		c0.1-0.5,0.1-1,0.1-1.5c0-0.5,0-1-0.1-1.5C145.7,317.7,145.6,317.2,145.5,316.7z"/>
	<path class="st0" d="M145.5,385.6c-0.1-0.5-0.2-1-0.4-1.4c-0.1-0.5-0.3-0.9-0.5-1.4c-0.2-0.4-0.4-0.9-0.6-1.3
		c-0.2-0.4-0.5-0.8-0.8-1.3c-0.3-0.4-0.6-0.8-0.9-1.2c-0.3-0.4-0.7-0.8-1-1.1c-0.3-0.3-0.7-0.7-1.1-1c-0.4-0.3-0.8-0.6-1.2-0.9
		c-0.4-0.3-0.8-0.5-1.3-0.8c-0.4-0.2-0.9-0.4-1.3-0.6c-0.4-0.2-0.9-0.4-1.4-0.5c-0.5-0.1-1-0.3-1.4-0.4c-0.5-0.1-1-0.2-1.4-0.2
		c-1-0.1-2-0.1-3,0c-0.5,0.1-1,0.1-1.5,0.2c-0.5,0.1-1,0.2-1.4,0.4c-0.5,0.1-0.9,0.3-1.4,0.5c-0.5,0.2-0.9,0.4-1.3,0.6
		c-0.4,0.2-0.9,0.5-1.3,0.8c-0.4,0.3-0.8,0.6-1.2,0.9c-0.4,0.3-0.8,0.6-1.1,1c-0.4,0.4-0.7,0.7-1,1.1c-0.3,0.4-0.6,0.8-0.9,1.2
		c-0.3,0.4-0.5,0.8-0.8,1.3c-0.2,0.4-0.4,0.9-0.6,1.3c-0.2,0.5-0.3,0.9-0.5,1.4c-0.1,0.5-0.3,0.9-0.4,1.4c-0.1,0.5-0.2,1-0.2,1.5
		c-0.1,0.5-0.1,1-0.1,1.5c0,0.5,0,1,0.1,1.5c0,0.5,0.1,1,0.2,1.5c0.1,0.5,0.2,1,0.4,1.4c0.2,0.5,0.3,0.9,0.5,1.4
		c0.2,0.4,0.4,0.9,0.6,1.3c0.2,0.4,0.5,0.9,0.8,1.3c0.3,0.4,0.6,0.8,0.9,1.2c0.3,0.4,0.6,0.8,1,1.1c0.3,0.3,0.7,0.7,1.1,1
		c0.4,0.3,0.8,0.6,1.2,0.9c0.4,0.3,0.8,0.5,1.3,0.8c0.4,0.2,0.9,0.4,1.3,0.6c0.4,0.2,0.9,0.4,1.4,0.5c0.5,0.1,0.9,0.3,1.4,0.4
		c0.5,0.1,1,0.2,1.5,0.2c0.5,0.1,1,0.1,1.5,0.1c0.5,0,1,0,1.5-0.1c0.5,0,1-0.1,1.4-0.2c0.5-0.1,1-0.2,1.4-0.4
		c0.5-0.1,0.9-0.3,1.4-0.5s0.9-0.4,1.3-0.6s0.9-0.5,1.3-0.8c0.4-0.3,0.8-0.6,1.2-0.9c0.4-0.3,0.8-0.7,1.1-1c0.3-0.4,0.7-0.7,1-1.1
		s0.6-0.8,0.9-1.2c0.3-0.4,0.5-0.8,0.8-1.3c0.2-0.4,0.4-0.9,0.6-1.3c0.2-0.4,0.4-0.9,0.5-1.4c0.1-0.5,0.3-0.9,0.4-1.4s0.2-1,0.2-1.5
		c0.1-0.5,0.1-1,0.1-1.5c0-0.5,0-1-0.1-1.5C145.7,386.5,145.6,386.1,145.5,385.6z"/>
</g>
</svg>
