<?xml version="1.0" encoding="utf-8"?>
<!-- Generator: Adobe Illustrator 23.0.1, SVG Export Plug-In . SVG Version: 6.00 Build 0)  -->
<svg version="1.1" id="Vrstva_1" xmlns="http://www.w3.org/2000/svg" xmlns:xlink="http://www.w3.org/1999/xlink" x="0px" y="0px"
	 viewBox="0 0 512 512" style="enable-background:new 0 0 512 512;" xml:space="preserve">
<style type="text/css">
	.st0{fill:#7B2323;}
</style>
<path class="st0" d="M252.4,246.6c33.9,0,63.2-12.2,87.2-36.1c24-24,36.1-53.3,36.1-87.2c0-33.9-12.2-63.2-36.1-87.2
	c-24-24-53.3-36.1-87.2-36.1c-33.9,0-63.2,12.2-87.2,36.1S129,89.4,129,123.3c0,33.9,12.2,63.2,36.1,87.2
	C189.1,234.5,218.5,246.6,252.4,246.6z M186.4,57.3c18.4-18.4,40-27.3,66-27.3c26,0,47.6,8.9,66,27.3c18.4,18.4,27.3,40,27.3,66
	c0,26-8.9,47.6-27.3,66c-18.4,18.4-40,27.3-66,27.3c-26,0-47.6-8.9-66-27.3c-18.4-18.4-27.3-40-27.3-66
	C159,97.3,168,75.7,186.4,57.3z"/>
<path class="st0" d="M468.1,393.7c-0.7-10-2.1-20.9-4.1-32.4c-2.1-11.6-4.8-22.5-8-32.5c-3.3-10.3-7.8-20.6-13.4-30.3
	c-5.8-10.2-12.6-19-20.2-26.3c-8-7.6-17.7-13.7-29-18.2c-11.2-4.4-23.7-6.7-37-6.7c-5.2,0-10.3,2.1-20,8.5c-6,3.9-13,8.4-20.9,13.5
	c-6.7,4.3-15.8,8.3-27,11.9c-10.9,3.5-22.1,5.3-33,5.3c-11,0-22.1-1.8-33-5.3c-11.2-3.6-20.3-7.6-27-11.9c-7.8-5-14.8-9.5-20.9-13.5
	c-9.8-6.4-14.8-8.5-20-8.5c-13.3,0-25.8,2.3-37,6.7c-11.3,4.5-21,10.6-29,18.2c-7.6,7.3-14.4,16.1-20.2,26.3
	c-5.6,9.8-10.1,20-13.4,30.3c-3.2,10-5.9,20.9-8,32.5c-2.1,11.5-3.5,22.4-4.1,32.4c-0.7,9.8-1,20-1,30.2c0,26.7,8.5,48.4,25.3,64.3
	C83.8,504,105.7,512,132.3,512h246.5c26.6,0,48.5-8,65.1-23.7c16.8-15.9,25.3-37.6,25.3-64.3C469.2,413.6,468.8,403.5,468.1,393.7z
	 M423.2,466.5c-10.9,10.4-25.4,15.5-44.4,15.5H132.3c-18.9,0-33.4-5.1-44.4-15.5C77.2,456.3,72,442.4,72,423.9
	c0-9.6,0.3-19.1,0.9-28.2c0.6-8.9,1.9-18.7,3.8-29.1c1.8-10.3,4.2-19.9,7-28.7c2.7-8.4,6.3-16.7,10.9-24.7
	c4.3-7.6,9.3-14.2,14.8-19.4c5.1-4.9,11.6-9,19.3-12c7.1-2.8,15-4.3,23.6-4.6c1.1,0.6,2.9,1.6,6,3.6c6.2,4,13.3,8.6,21.1,13.6
	c8.9,5.6,20.3,10.8,33.9,15.2c13.9,4.5,28.2,6.8,42.3,6.8s28.3-2.3,42.3-6.8c13.6-4.4,25.1-9.5,33.9-15.2c8-5.1,15-9.6,21.1-13.6
	c3-2,4.9-3,6-3.6c8.6,0.2,16.6,1.8,23.6,4.6c7.6,3,14.1,7.1,19.3,12c5.5,5.3,10.5,11.8,14.8,19.4c4.5,8,8.2,16.3,10.9,24.7
	c2.8,8.8,5.2,18.4,7,28.7c1.9,10.4,3.1,20.2,3.8,29.1v0c0.6,9.1,1,18.5,1,28.1C439.2,442.4,433.9,456.3,423.2,466.5z"/>
<path class="st0" d="M284.6,449.8c-2.1,0-4.1-0.7-5.9-2L255.6,431c-1.1-0.8-2.5-0.8-3.6,0l-23.1,16.8c-3.6,2.6-8.3,2.6-11.9,0
	c-3.6-2.6-5-7.1-3.7-11.3l8.8-27.1c0.4-1.3,0-2.6-1.1-3.4L198,389.2c-3.6-2.6-5-7.1-3.7-11.3c1.4-4.2,5.1-7,9.6-7h28.5
	c1.3,0,2.5-0.9,2.9-2.1l8.8-27.1c1.4-4.2,5.1-7,9.6-7c4.5,0,8.2,2.7,9.6,7l8.8,27.1c0.4,1.3,1.6,2.1,2.9,2.1h28.5
	c4.5,0,8.2,2.7,9.6,7c1.4,4.2-0.1,8.7-3.7,11.3l-23.1,16.8c-1.1,0.8-1.5,2.2-1.1,3.4l8.8,27.1c1.4,4.2-0.1,8.7-3.7,11.3
	C288.8,449.1,286.7,449.8,284.6,449.8z M253.8,423.4c2.1,0,4.2,0.6,5.9,1.9l23.1,16.8c1.7,1.2,3.2,0.3,3.6,0
	c0.4-0.3,1.8-1.5,1.1-3.4l-8.8-27.1c-1.4-4.2,0.1-8.7,3.7-11.3l23.1-16.8c1.7-1.2,1.3-2.9,1.1-3.4c-0.2-0.5-0.9-2.1-2.9-2.1h-28.5
	c-4.4,0-8.2-2.8-9.6-7l-8.8-27.1c-0.6-2-2.4-2.1-2.9-2.1s-2.3,0.2-2.9,2.1l-8.8,27.1c-1.4,4.2-5.2,7-9.6,7h-28.5
	c-2.1,0-2.8,1.6-2.9,2.1c-0.2,0.5-0.6,2.2,1.1,3.4l23.1,16.8c3.6,2.6,5,7.1,3.7,11.3l-8.8,27.1c-0.6,2,0.7,3.1,1.1,3.4
	c0.4,0.3,1.9,1.2,3.6,0l23.1-16.8C249.6,424.1,251.7,423.4,253.8,423.4z"/>
</svg>
