<?xml version="1.0" encoding="utf-8"?>
<!-- Generator: Adobe Illustrator 23.0.1, SVG Export Plug-In . SVG Version: 6.00 Build 0)  -->
<svg version="1.1" id="Vrstva_1" xmlns="http://www.w3.org/2000/svg" xmlns:xlink="http://www.w3.org/1999/xlink" x="0px" y="0px"
	 viewBox="0 0 511 512" style="enable-background:new 0 0 511 512;" xml:space="preserve">
<style type="text/css">
	.st0{fill:#7B2323;}
</style>
<path class="st0" d="M256.5,511l-10.8-11.6c-1.6-1.7-38.6-41.6-77.9-98.1c-53.4-76.7-83.6-144-89.7-200c-1-8.1-1.5-15.4-1.5-22.3
	c0-99.2,80.7-180,180-180c99.2,0,179.9,80.7,180,179.9c0,6.7-0.5,13.9-1.5,22c-6,56-36.2,123.3-89.6,200.2
	c-39.4,56.6-76.5,96.6-78,98.3L256.5,511z M256.5,28.6c-82.9,0-150.4,67.5-150.4,150.4c0,5.7,0.4,11.8,1.3,18.7v0.3
	c11.2,102.7,114.9,229.7,149,269.1c34.2-39.4,138.1-166.6,149.1-269.3v-0.3c0.9-7,1.3-12.9,1.3-18.4
	C406.8,96.1,339.4,28.6,256.5,28.6z M256.5,300c-66.7,0-121.1-54.3-121.1-121.1s54.3-121,121.1-121c66.7,0,121,54.3,121,121.1
	S323.2,300,256.5,300z M256.5,87.5c-50.4,0-91.4,41-91.4,91.4s41,91.4,91.4,91.4s91.4-41,91.4-91.4S306.9,87.5,256.5,87.5z"/>
</svg>
