<?xml version="1.0" encoding="UTF-8" standalone="no"?>
<!DOCTYPE svg PUBLIC "-//W3C//DTD SVG 1.1//EN" "http://www.w3.org/Graphics/SVG/1.1/DTD/svg11.dtd">
<svg width="100%" height="100%" viewBox="0 0 24 24" version="1.1" xmlns="http://www.w3.org/2000/svg" xmlns:xlink="http://www.w3.org/1999/xlink" xml:space="preserve" xmlns:serif="http://www.serif.com/" style="fill-rule:evenodd;clip-rule:evenodd;stroke-linejoin:round;stroke-miterlimit:2;">
    <g>
        <rect x="0" y="0" width="24" height="24" style="fill:none;"/>
        <path d="M21.6,18.2L13,11.75L13,10.84C14.65,10.35 15.8,8.67 15.43,6.79C15.17,5.48 14.13,4.39 12.82,4.09C10.54,3.57 8.5,5.3 8.5,7.5L10.5,7.5C10.5,6.67 11.17,6 12,6C12.83,6 13.5,6.67 13.5,7.5C13.5,8.34 12.81,9.02 11.97,9C11.43,8.99 11,9.45 11,9.99L11,11.75L2.4,18.2C1.63,18.78 2.04,20 3,20L21,20C21.96,20 22.37,18.78 21.6,18.2ZM6,18L12,13.5L18,18L6,18Z" style="fill:rgb(123,29,29);fill-rule:nonzero;"/>
    </g>
</svg>
