<?xml version="1.0" encoding="utf-8"?>
<!-- Generator: Adobe Illustrator 23.0.1, SVG Export Plug-In . SVG Version: 6.00 Build 0)  -->
<svg version="1.1" id="Vrstva_1" xmlns="http://www.w3.org/2000/svg" xmlns:xlink="http://www.w3.org/1999/xlink" x="0px" y="0px"
	 viewBox="0 0 512 512" style="enable-background:new 0 0 512 512;" xml:space="preserve">
<style type="text/css">
	.st0{fill:#7B2323;}
</style>
<path class="st0" d="M494.5,100h-477C7.8,100,0,107.8,0,117.5V394c0,9.6,7.8,17.5,17.5,17.5h477.1c9.6,0,17.5-7.8,17.5-17.5V117.5
	C512,107.8,504.2,100,494.5,100z M30,143l143.5,95.4L30,363.3V143z M256,257.2L64.7,130h382.5L256,257.2z M199.5,255.6l46.9,31.1
	c2.9,2,6.3,2.9,9.7,2.9c3.4,0,6.7-1,9.7-2.9l46.9-31.1l144.4,125.7h-402L199.5,255.6z M338.5,238.4L482,143v220.3L338.5,238.4z"/>
</svg>
