<?xml version="1.0" encoding="utf-8"?>
<!-- Generator: Adobe Illustrator 23.0.1, SVG Export Plug-In . SVG Version: 6.00 Build 0)  -->
<svg version="1.1" xmlns="http://www.w3.org/2000/svg" xmlns:xlink="http://www.w3.org/1999/xlink" x="0px" y="0px"
	 viewBox="0 0 341.7 109.3" style="enable-background:new 0 0 341.7 109.3;" xml:space="preserve">
<style type="text/css">
	.st0{fill:#752525;}
</style>
<g id="Vrstva_1">
	<g>
		<defs>
			<rect id="SVGID_1_" x="327.3" y="172.3" width="249.7" height="332.9"/>
		</defs>
		<clipPath id="SVGID_2_">
			<use xlink:href="#SVGID_1_"  style="overflow:visible;"/>
		</clipPath>
	</g>
	<g>
		<defs>
			<rect id="SVGID_3_" x="596" y="30.9" width="249.7" height="332.9"/>
		</defs>
		<clipPath id="SVGID_4_">
			<use xlink:href="#SVGID_3_"  style="overflow:visible;"/>
		</clipPath>
	</g>
</g>
<g id="Vrstva_2">
	<g>
		<path class="st0" d="M89.2,62.8c0-3.6-1.9-8.3-1.9-12.1c0-6.2,2.2-9.8,7-9.8c1.7,0,3.2,1.4,3.2,3.2c0,4.4-8.5,2-8.5,6.9
			c0,4.2,4.5,8.7,4.5,12.7c0,4.5-3.9,7.8-9,7.8s-8.9-3.3-8.9-7.8c0-4,4.5-8.6,4.5-12.7c0-4.9-8.5-2.6-8.5-6.9c0-1.8,1.5-3.2,3.2-3.2
			c4.7,0,7,3.6,7,9.8c0,3.8-1.9,8.5-1.9,12.1c0,5.3,2.4,7.3,4.8,7.3C86.7,70,89.2,68.1,89.2,62.8z"/>
		<path class="st0" d="M101.9,55.4c0-3.6-2-7.1-2-10.5c0-3.4,1.6-4,8.5-4c6.3,0,11.4,1.8,11.4,6.8c0,1.8-1,3-2.6,3
			c-3.7,0-1-8.1-8.4-8.1c-2.7,0-4.4,2-4.4,4.7c0,9.5,10.6,3.5,10.6,8.9c0,1.6-1.2,2.5-2.4,2.5c-3.7,0-8-6.2-8.1-7.2h-0.2v8.2
			c0,6-0.2,10.2,6.1,10.2c4.9,0,3.4-6.1,7.7-6.1c1.8,0,3.2,1.3,3.2,2.8c0,3.4-4.4,5-10.6,5c-8.5,0-10.5-0.5-10.5-5.2
			C100.3,62.8,101.9,59.1,101.9,55.4z"/>
		<path class="st0" d="M140.7,71.5c-1.8,0-3.1-1.1-3.1-2.6c0-2.8,3.3-2.4,3.3-5.1c0-5-4.1-6.9-10.5-6.9c-2,0-2.5,0.3-2.5,3.1
			c0,2.9,0.4,7.8,0.4,8.9c0,1.4-1,2.3-2.1,2.3c-1.1,0-2.4-0.9-2.4-2.3c0-2.8,1.5-7.1,1.5-13.2c0-5.4-1.5-11.9-1.5-12.9
			c0-1.1,1.2-1.9,2.5-1.9L134,41c6.6,0.1,10.5,3.8,10.5,8.4c0,4.2-3.4,6.6-7.6,7.1c4.5,1.1,7.6,6.1,7.6,9.9
			C144.5,70,142.8,71.5,140.7,71.5z M140.4,50.3c0-3.5-2.4-5.9-7-5.9c-4.1,0-5.6,3.1-5.6,10.7h5.3C137.9,55.1,140.4,53.5,140.4,50.3
			z"/>
		<path class="st0" d="M146.7,56.4c0-9.3,5.6-15.5,14-15.5s13.9,6.2,13.9,15.5c0,9.2-5.6,15.3-13.9,15.3S146.7,65.6,146.7,56.4z
			 M167.6,49.4c-4.8-4.8-12.2-6.6-16.4-2.4c-4.2,4.2-2.5,11.7,2.4,16.4c4.8,4.7,12.1,6.5,16.3,2.2C174.1,61.4,172.4,54.2,167.6,49.4
			z"/>
		<path class="st0" d="M177.8,61.2v-7.9c0-2.6-0.4-5.9-0.4-8c0-3.4,1.6-4.4,3.4-4.4c1.6,0,3.1,1.2,3.1,4.4c0,7.2,2.3,22.3,8.8,22.3
			c3.2,0,3-2,3-14.3c0-2.6-0.4-9.1-0.4-10.1c0-1.4,1.2-2.3,2.5-2.3c1.2,0,2.4,0.9,2.4,2.3c0,0.9-0.4,7.6-0.4,10.1v11.5
			c0,4-1.6,6.8-5.2,6.8c-8.2,0-12.5-12.4-12.5-21.8h-0.2l0.1,11.5c0,2.5,0.4,7.2,0.4,8.1c0,1.4-1.2,2.3-2.4,2.3
			c-1.2,0-2.5-0.9-2.5-2.3C177.3,68.3,177.8,63.8,177.8,61.2z"/>
		<path class="st0" d="M208.1,61.2c0,2.5,0.4,7.2,0.4,8.1c0,1.4-1.2,2.3-2.4,2.3c-1.2,0-2.5-0.9-2.5-2.3c0-1,0.4-5.4,0.4-8.1v-7.9
			c0-2.6-0.4-9.1-0.4-10.1c0-1.4,1.2-2.3,2.5-2.3c1.2,0,2.4,0.9,2.4,2.3c0,0.9-0.4,7.6-0.4,10.1V61.2z"/>
		<path class="st0" d="M212.5,61.2v-7.9c0-2.6-0.4-9.1-0.4-10.1c0-1.4,1.2-2.3,2.5-2.3c1.2,0,2.4,0.9,2.4,2.3
			c0,3.9-3.8,11.5,2.2,11.5c4.6,0,8.2-3.5,8.2-9.2c0-2.9,1-5,3.1-5c1.4,0,2.3,1.6,2.3,3.6c0,6-4.3,10.5-11.1,10.8v0.2h1.1
			c7.9,0,11.1,6.2,11.1,10c0,4.9-1.8,6.4-4,6.4c-1.6,0-2.9-1.1-2.9-2.6c0-3.5,3.3-3,3.3-6.3c0-4.4-6-6.4-13.8-6.8v5.4
			c0,2.5,0.4,7.2,0.4,8.1c0,1.4-1.2,2.3-2.4,2.3c-1.2,0-2.5-0.9-2.5-2.3C212.1,68.3,212.5,63.8,212.5,61.2z"/>
		<path class="st0" d="M248.4,40.4c10.9,0,11.7,22.5,11.7,27.5c0,2.5-1,3.6-2.6,3.6c-1.6,0-2.5-1.9-2.4-6l0.3-10.4h-0.2
			c0,4.9-2.6,9.9-6.8,9.9c-4.6,0-7-5.2-7-9.9h-0.2l0.4,10.4c0.1,4.1-0.9,6-2.5,6c-1.6,0-2.6-1.1-2.6-3.6
			C236.5,62.9,237.5,40.4,248.4,40.4z M254.1,53.8c0-2.8-1.4-10.2-5.7-10.2s-5.8,7.4-5.8,10.2c0,2.7,1.6,6.7,5.8,6.7
			C252.3,60.6,254.1,56.5,254.1,53.8z"/>
	</g>
</g>
</svg>
